<svg width="28" height="36" viewBox="0 0 28 36" fill="none" xmlns="http://www.w3.org/2000/svg">
<path d="M5.41947 15.4315L18.054 20.4059M19.9372 17.4213C21.8135 17.7599 23.5244 18.7187 24.7998 20.1464C26.0752 21.574 26.8424 23.389 26.9803 25.305C27.1109 27.2472 26.5886 29.1771 25.4974 30.7833C24.4062 32.3896 22.8098 33.5786 20.9658 34.1585C19.7768 34.5321 18.5208 34.6381 17.2866 34.4691C16.0524 34.3 14.8701 33.8601 13.823 33.1804M25.7608 21.9274L14.4536 29.6774M18.1468 1.47146C21.6348 2.84688 23.3553 6.81321 21.9896 10.3304L14.0999 30.6505C12.7342 34.1677 8.7995 35.904 5.3115 34.5285C1.82351 33.1531 0.10298 29.1868 1.46864 25.6696L9.35843 5.34957C10.7241 1.83234 14.6588 0.0960358 18.1468 1.47146Z" stroke="#169D16" stroke-width="2" stroke-linecap="round" stroke-linejoin="round"/>
</svg>
